<svg id="Layer_3" enable-background="new 0 0 64 64" height="512" viewBox="0 0 64 64" width="512" xmlns="http://www.w3.org/2000/svg"><path d="m35 5c-3.309 0-6 2.691-6 6 0 1.103-.897 2-2 2s-2-.897-2-2v-3h-2v3c0 2.206 1.794 4 4 4s4-1.794 4-4 1.794-4 4-4 4 1.794 4 4v3h2v-3c0-3.309-2.691-6-6-6z"/><path d="m17 22-4-4 4-4-6 2-3-4v4h-6l4 4-3 3h4l3 3 2-4h.597c1.505 1.435 3.403 4.137 3.403 6h2c0-2.016-1.325-4.305-2.694-6z"/><path d="m25.293 6.707 1.414-1.414-1.293-1.293 1.293-1.293-1.414-1.414-1.293 1.293-1.293-1.293-1.414 1.414 1.293 1.293-1.293 1.293 1.414 1.414 1.293-1.293z"/><path d="m20 31.292v-2.292h-6v2.292c.973-.186 1.974-.292 3-.292s2.027.106 3 .292z"/><path d="m45 17.554v-2.554h-10v2.567c1.627-.366 3.3-.567 5-.567 1.717 0 3.389.195 5 .554z"/><path d="m40 19c-7.345 0-14.214 3.901-18 10.191v2.62c6.379 2.106 11 8.114 11 15.189 0 4.144-1.597 7.913-4.192 10.758 3.35 2.117 7.191 3.242 11.192 3.242 11.579 0 21-9.421 21-21 0-11.58-9.421-21-21-21zm0 4v-2c10.477 0 19 8.523 19 19h-2c0-9.374-7.626-17-17-17z"/><path d="m17 33c-7.72 0-14 6.28-14 14s6.28 14 14 14 14-6.28 14-14-6.28-14-14-14zm0 4v-2c6.617 0 12 5.383 12 12h-2c0-5.514-4.486-10-10-10z"/></svg>